<svg width="44" height="38" viewBox="0 0 44 38" fill="none" xmlns="http://www.w3.org/2000/svg">
<g id="Group 164">
<path id="Vector" d="M20.4819 16.4287C20.9277 16.7256 21.4573 16.8847 21.9999 16.8847C22.5425 16.8847 23.0722 16.7256 23.5179 16.4287L41.7735 3.28911C41.8983 3.1955 42.0006 3.07724 42.0735 2.94235C42.1465 2.80746 42.1883 2.6591 42.1962 2.50733C42.2042 2.35555 42.178 2.20391 42.1195 2.0627C42.061 1.92149 41.9715 1.794 41.8571 1.68889C40.6444 0.609944 39.0537 0.00721606 37.3999 0H6.59992C4.94616 0.00721606 3.35548 0.609944 2.14272 1.68889C2.02311 1.79332 1.92907 1.92186 1.86735 2.0653C1.80563 2.20873 1.77777 2.3635 1.78576 2.51849C1.79375 2.67348 1.8374 2.82485 1.91357 2.96174C1.98974 3.09862 2.09655 3.21763 2.22632 3.31022L20.4819 16.4287Z" fill="#5F00D9"/>
<path id="Vector_2" d="M26.1536 19.8022C24.9479 20.6477 23.4933 21.1033 22 21.1033C20.5067 21.1033 19.0521 20.6477 17.8464 19.8022L1.76 8.22913C1.59657 8.11151 1.40224 8.03989 1.19879 8.02229C0.995328 8.00468 0.790781 8.04179 0.608065 8.12946C0.425349 8.21713 0.271682 8.35189 0.164284 8.51864C0.0568861 8.68539 0 8.87755 0 9.07358L0 31.6667C0 33.3464 0.695355 34.9573 1.9331 36.145C3.17084 37.3328 4.84957 38 6.6 38H37.4C39.1504 38 40.8292 37.3328 42.0669 36.145C43.3046 34.9573 44 33.3464 44 31.6667V9.07358C44 8.87755 43.9431 8.68539 43.8357 8.51864C43.7283 8.35189 43.5746 8.21713 43.3919 8.12946C43.2092 8.04179 43.0047 8.00468 42.8012 8.02229C42.5978 8.03989 42.4034 8.11151 42.24 8.22913L26.1536 19.8022Z" fill="#5F00D9"/>
</g>
</svg>
